Coordinates
version=1
nRows=9
nColumns=36
inDegrees=yes

Units are S.I. units (second, meters, Newtons, ...)
If the header above contains a line with 'inDegrees', this indicates whether rotational values are in degrees (yes) or radians (no).

endheader
time	pelvis_tilt	pelvis_list	pelvis_rotation	pelvis_tx	pelvis_ty	pelvis_tz	hip_flexion_r	hip_adduction_r	hip_rotation_r	knee_angle_r	knee_angle_r_beta	ankle_angle_r	subtalar_angle_r	mtp_angle_r	hip_flexion_l	hip_adduction_l	hip_rotation_l	knee_angle_l	knee_angle_l_beta	ankle_angle_l	subtalar_angle_l	mtp_angle_l	lumbar_extension	lumbar_bending	lumbar_rotation	arm_flex_r	arm_add_r	arm_rot_r	elbow_flex_r	pro_sup_r	arm_flex_l	arm_add_l	arm_rot_l	elbow_flex_l	pro_sup_l
     14.75000000	      2.89438063	      5.89610900	   -180.91200100	      0.29563929	      0.95680119	      0.78077259	     19.52549078	     -0.39285415	      4.71763686	     76.83061788	      1.34094725	     -4.69505098	    -17.66880550	     -7.49999987	     23.56174140	     -5.41783285	     -0.83421134	     33.31506001	      0.58145749	     -8.00389657	    -21.25961292	     -7.49999987	    -16.02654491	      3.17304949	      3.83727981	     17.02104014	    -17.58685934	     17.71463343	     25.88801070	     82.42465802	     13.23544458	     -5.44394721	    -10.62658916	     13.07892879	     87.07035569
     14.76666670	      2.72227925	      6.28583334	   -181.31939151	      0.29994993	      0.96722531	      0.77844689	     21.16787312	      0.24827986	      4.08474083	     75.66316083	      1.32057128	     -7.57705485	    -19.74385396	     -7.49999987	     21.89215297	     -6.03185085	     -1.41488694	     32.64764962	      0.56980898	     -6.18264295	    -20.43313895	     -7.49999987	    -16.42427075	      3.71562978	      3.03103389	     16.36950412	    -17.27585348	     16.75863785	     26.70312987	     82.59387044	     13.69987269	     -5.68943024	    -10.56817006	     14.92223107	     87.14912539
     14.78333330	      2.80142285	      6.78989326	   -181.58500511	      0.30454301	      0.97225224	      0.77445475	     23.16595524	      1.03945688	      3.23839589	     73.92599531	      1.29025202	    -10.16809699	    -21.53211681	     -7.49999987	     20.71058261	     -6.92162169	     -2.11939896	     32.18549404	      0.56174284	     -3.90621356	    -19.92550843	     -7.49999987	    -16.76058220	      4.32424737	      2.28020404	     15.47696592	    -17.05771846	     15.94683798	     28.08289915	     80.97276421	     14.26184482	     -6.14595141	    -10.15880149	     17.05477360	     85.31942356
     14.80000000	      3.16613808	      7.32591300	   -181.70289356	      0.30818256	      0.97287317	      0.77071738	     25.59626738	      1.77004534	      2.30178446	     71.54259271	      1.24865380	    -11.34426836	    -22.41757885	     -7.49999987	     19.88999116	     -7.85356525	     -2.83322009	     31.17778123	      0.54415494	     -1.45284262	    -18.60275791	     -7.49999987	    -16.99323867	      4.85157513	      2.24032576	     13.68558330	    -16.79061939	     12.38330028	     30.45151305	     82.85945482	     15.43845522	     -6.81550101	     -7.94392210	     18.56585685	     85.86117986
     14.81666670	      3.81387735	      7.73899097	   -181.57035546	      0.31119909	      0.97410484	      0.76886302	     27.75975179	      2.06999531	      1.34697682	     66.59543652	      1.16230963	    -11.70666266	    -21.68869416	     -7.49999987	     19.19487352	     -8.42233835	     -3.29080440	     28.76289873	      0.50200729	     -0.23378020	    -15.59823677	     -7.49999987	    -16.81622191	      5.40500203	      1.20348379	     13.01835319	    -16.35322717	     11.80771279	     31.61262464	     82.40628044	     16.19082366	     -7.72925051	     -7.89322449	     20.14240226	     85.25424568
     14.83333330	      4.97684972	      7.50681658	   -181.29975338	      0.31458884	      0.97607678	      0.76875223	     29.57756504	      1.39794633	      0.74232125	     58.78811663	      1.02604620	    -12.80200650	    -20.04214768	     -7.49999987	     18.78730102	     -7.91822935	     -2.92195220	     24.97695096	      0.43593003	     -2.05441758	    -12.66457992	     -7.49999987	    -15.92641145	      5.22696040	      0.37405066	     12.06934158	    -15.92323289	     11.61001972	     32.07453940	     82.21367501	     17.22996700	     -8.62276484	     -7.82572372	     20.97981506	     85.06273182
     14.85000000	      5.45683159	      6.81851708	   -180.42724060	      0.31764951	      0.97707103	      0.76986041	     29.47729784	     -0.08272213	     -0.14505688	     49.18265345	      0.85839924	    -14.80525768	    -18.33439390	     -7.49999987	     17.77645979	     -6.74218252	     -1.92697929	     21.47978585	      0.37489299	     -3.69565815	     -8.57717293	     -7.49999987	    -15.87864136	      4.71804817	     -1.10214609	     11.06127164	    -15.06529422	      9.74212063	     32.89256760	     81.93803215	     17.95872926	     -9.96201762	     -6.82140487	     22.29341148	     85.15440167
     14.86666670	      6.18404246	      5.02621367	   -179.67497120	      0.31936567	      0.97454175	      0.77005368	     29.60456658	     -2.40514333	     -0.74026323	     40.79078609	      0.71193352	    -15.91578879	    -16.62446316	     -7.49999987	     17.08172579	     -4.40519103	     -0.51217309	     19.25188349	      0.33600875	     -4.96752591	     -7.37375842	     -7.49999987	    -15.34508915	      2.68804533	     -0.98605146	      8.39504422	    -13.73350972	      3.38403226	     34.07282436	     85.23188591	     19.76444088	    -11.11903104	     -2.07493047	     22.22387009	     84.10212734
     14.88333330	      6.61849087	      3.12535412	   -178.90807176	      0.32062738	      0.97045626	      0.76963421	     29.72750516	     -4.48038937	     -1.20284409	     34.28000079	      0.59829888	    -15.35271628	    -14.99908148	     -7.49999987	     16.25414804	     -2.08443151	      1.02891676	     18.74054397	      0.32708420	     -4.54677104	     -7.62380757	     -7.49999987	    -14.97115987	      0.63855700	     -2.54404677	      7.56693414	    -12.64799312	      2.76954147	     33.78976329	     83.50824090	     20.19408209	    -12.47021186	     -1.59727513	     23.10582518	     82.80989819
